<svg xmlns="http://www.w3.org/2000/svg" viewBox="0 0 860 540" width="860" height="540">
  <defs>
    <style>
      @import url('https://fonts.googleapis.com/css2?family=Source+Serif+4:ital,opsz,wght@0,8..60,400;0,8..60,500;1,8..60,400&amp;family=JetBrains+Mono:wght@400;500&amp;display=swap');
      text { font-family: Georgia, serif; }
      .mono { font-family: 'JetBrains Mono', 'Courier New', monospace; }
      .serif { font-family: 'Source Serif 4', Georgia, serif; }
    </style>
  </defs>

  <!-- Background -->
  <rect width="860" height="540" fill="#F8F8FA"/>

  <!-- Eyebrow -->
  <text x="40" y="30" class="mono" font-size="10" fill="#7A8099" letter-spacing="2">BILANZKENNZAHLEN · MODUL 01 · BILANZLESEN FÜR PRAKTIKER</text>
  <line x1="40" y1="40" x2="820" y2="40" stroke="#E2E3E8" stroke-width="1"/>

  <!-- ══════════════════════════════════════════════
       CARD GRID: 3 cols × 2 rows
       Col x: 40, 307, 574   Width: 247
       Row y: 55, 295         Height: 225
       ══════════════════════════════════════════════ -->

  <!-- ─── CARD 1: EK-Quote (top-left) ─── -->
  <rect x="40" y="55" width="247" height="225" fill="#FFFFFF" stroke="#E2E3E8" stroke-width="1"/>
  <!-- Top bar: primary -->
  <rect x="40" y="55" width="247" height="4" fill="#1F2C56"/>
  <!-- Content -->
  <text x="55" y="82" class="serif" font-size="16" fill="#1F2C56" font-weight="500">EK-Quote</text>
  <text x="55" y="98" class="mono" font-size="9" fill="#7A8099" letter-spacing="1">EIGENKAPITALQUOTE</text>
  <line x1="55" y1="108" x2="272" y2="108" stroke="#E2E3E8" stroke-width="1"/>
  <text x="55" y="124" class="mono" font-size="11" fill="#3D4460" font-style="italic">Eigenkapital</text>
  <line x1="55" y1="130" x2="200" y2="130" stroke="#3D4460" stroke-width="1"/>
  <text x="55" y="144" class="mono" font-size="11" fill="#3D4460" font-style="italic">Bilanzsumme</text>
  <text x="210" y="136" class="mono" font-size="14" fill="#3D4460">× 100</text>
  <line x1="55" y1="155" x2="272" y2="155" stroke="#E2E3E8" stroke-width="1"/>
  <text x="55" y="170" class="mono" font-size="8" fill="#7A8099" letter-spacing="1">BENCHMARK</text>
  <text x="55" y="186" class="mono" font-size="9" fill="#15192B" letter-spacing="0.5">&gt; 30 %  ·  15–30 %  ·  &lt; 15 %</text>
  <line x1="55" y1="197" x2="272" y2="197" stroke="#E2E3E8" stroke-width="1"/>
  <!-- Traffic lights -->
  <circle cx="70" cy="213" r="5" fill="#22c55e"/>
  <text x="80" y="217" class="mono" font-size="8" fill="#7A8099">gut</text>
  <circle cx="130" cy="213" r="5" fill="#f59e0b"/>
  <text x="140" y="217" class="mono" font-size="8" fill="#7A8099">beobachten</text>
  <circle cx="220" cy="213" r="5" fill="#ef4444"/>
  <text x="230" y="217" class="mono" font-size="8" fill="#7A8099">kritisch</text>
  <!-- Period label -->
  <text x="55" y="267" class="mono" font-size="8" fill="#B0B3C0">Zielwert &gt; 30 %</text>

  <!-- ─── CARD 2: Verschuldungsgrad (top-center) ─── -->
  <rect x="307" y="55" width="247" height="225" fill="#FFFFFF" stroke="#E2E3E8" stroke-width="1"/>
  <rect x="307" y="55" width="247" height="4" fill="#D9C089"/>
  <text x="322" y="82" class="serif" font-size="16" fill="#1F2C56" font-weight="500">Verschuldungsgrad</text>
  <text x="322" y="98" class="mono" font-size="9" fill="#7A8099" letter-spacing="1">LEVERAGE RATIO</text>
  <line x1="322" y1="108" x2="539" y2="108" stroke="#E2E3E8" stroke-width="1"/>
  <text x="322" y="124" class="mono" font-size="11" fill="#3D4460" font-style="italic">Fremdkapital</text>
  <line x1="322" y1="130" x2="455" y2="130" stroke="#3D4460" stroke-width="1"/>
  <text x="322" y="144" class="mono" font-size="11" fill="#3D4460" font-style="italic">Eigenkapital</text>
  <line x1="322" y1="155" x2="539" y2="155" stroke="#E2E3E8" stroke-width="1"/>
  <text x="322" y="170" class="mono" font-size="8" fill="#7A8099" letter-spacing="1">BENCHMARK</text>
  <text x="322" y="186" class="mono" font-size="9" fill="#15192B" letter-spacing="0.5">&lt; 2,0  ·  2,0–3,5  ·  &gt; 3,5</text>
  <line x1="322" y1="197" x2="539" y2="197" stroke="#E2E3E8" stroke-width="1"/>
  <circle cx="337" cy="213" r="5" fill="#22c55e"/>
  <text x="347" y="217" class="mono" font-size="8" fill="#7A8099">gut</text>
  <circle cx="397" cy="213" r="5" fill="#f59e0b"/>
  <text x="407" y="217" class="mono" font-size="8" fill="#7A8099">beobachten</text>
  <circle cx="487" cy="213" r="5" fill="#ef4444"/>
  <text x="497" y="217" class="mono" font-size="8" fill="#7A8099">kritisch</text>

  <!-- ─── CARD 3: EBIT-Marge (top-right) ─── -->
  <rect x="574" y="55" width="247" height="225" fill="#FFFFFF" stroke="#E2E3E8" stroke-width="1"/>
  <rect x="574" y="55" width="247" height="4" fill="#1F2C56"/>
  <text x="589" y="82" class="serif" font-size="16" fill="#1F2C56" font-weight="500">EBIT-Marge</text>
  <text x="589" y="98" class="mono" font-size="9" fill="#7A8099" letter-spacing="1">BETRIEBLICHE UMSATZRENDITE</text>
  <line x1="589" y1="108" x2="806" y2="108" stroke="#E2E3E8" stroke-width="1"/>
  <text x="589" y="124" class="mono" font-size="11" fill="#3D4460" font-style="italic">EBIT</text>
  <line x1="589" y1="130" x2="670" y2="130" stroke="#3D4460" stroke-width="1"/>
  <text x="589" y="144" class="mono" font-size="11" fill="#3D4460" font-style="italic">Umsatz</text>
  <text x="678" y="136" class="mono" font-size="14" fill="#3D4460">× 100</text>
  <line x1="589" y1="155" x2="806" y2="155" stroke="#E2E3E8" stroke-width="1"/>
  <text x="589" y="170" class="mono" font-size="8" fill="#7A8099" letter-spacing="1">BENCHMARK · ∅ MASCHINENBAU 6,1 %</text>
  <text x="589" y="186" class="mono" font-size="9" fill="#15192B" letter-spacing="0.5">&gt; 6 %  ·  3–6 %  ·  &lt; 3 %</text>
  <line x1="589" y1="197" x2="806" y2="197" stroke="#E2E3E8" stroke-width="1"/>
  <circle cx="604" cy="213" r="5" fill="#22c55e"/>
  <text x="614" y="217" class="mono" font-size="8" fill="#7A8099">gut</text>
  <circle cx="664" cy="213" r="5" fill="#f59e0b"/>
  <text x="674" y="217" class="mono" font-size="8" fill="#7A8099">beobachten</text>
  <circle cx="754" cy="213" r="5" fill="#ef4444"/>
  <text x="764" y="217" class="mono" font-size="8" fill="#7A8099">kritisch</text>

  <!-- ─── CARD 4: KDCG (bottom-left) ─── -->
  <rect x="40" y="295" width="247" height="225" fill="#FFFFFF" stroke="#E2E3E8" stroke-width="1"/>
  <rect x="40" y="295" width="247" height="4" fill="#D9C089"/>
  <text x="55" y="322" class="serif" font-size="16" fill="#1F2C56" font-weight="500">KDCG</text>
  <text x="55" y="338" class="mono" font-size="9" fill="#7A8099" letter-spacing="1">KAPITALDIENSTDECKUNGSGRAD</text>
  <line x1="55" y1="348" x2="272" y2="348" stroke="#E2E3E8" stroke-width="1"/>
  <text x="55" y="364" class="mono" font-size="9" fill="#3D4460" font-style="italic">JÜ + AfA + Zinsaufwand</text>
  <line x1="55" y1="370" x2="255" y2="370" stroke="#3D4460" stroke-width="1"/>
  <text x="55" y="384" class="mono" font-size="9" fill="#3D4460" font-style="italic">Tilgung + Zinsaufwand</text>
  <line x1="55" y1="395" x2="272" y2="395" stroke="#E2E3E8" stroke-width="1"/>
  <text x="55" y="410" class="mono" font-size="8" fill="#7A8099" letter-spacing="1">BENCHMARK</text>
  <text x="55" y="426" class="mono" font-size="9" fill="#15192B" letter-spacing="0.5">≥ 1,20  ·  1,00–1,20  ·  &lt; 1,00</text>
  <line x1="55" y1="437" x2="272" y2="437" stroke="#E2E3E8" stroke-width="1"/>
  <circle cx="70" cy="453" r="5" fill="#22c55e"/>
  <text x="80" y="457" class="mono" font-size="8" fill="#7A8099">gut</text>
  <circle cx="130" cy="453" r="5" fill="#f59e0b"/>
  <text x="140" y="457" class="mono" font-size="8" fill="#7A8099">beobachten</text>
  <circle cx="220" cy="453" r="5" fill="#ef4444"/>
  <text x="230" y="457" class="mono" font-size="8" fill="#7A8099">kritisch</text>

  <!-- ─── CARD 5: Anlagendeckung II (bottom-center) ─── -->
  <rect x="307" y="295" width="247" height="225" fill="#FFFFFF" stroke="#E2E3E8" stroke-width="1"/>
  <rect x="307" y="295" width="247" height="4" fill="#1F2C56"/>
  <text x="322" y="322" class="serif" font-size="16" fill="#1F2C56" font-weight="500">Anlagendeckung II</text>
  <text x="322" y="338" class="mono" font-size="9" fill="#7A8099" letter-spacing="1">GOLDENE BILANZREGEL</text>
  <line x1="322" y1="348" x2="539" y2="348" stroke="#E2E3E8" stroke-width="1"/>
  <text x="322" y="364" class="mono" font-size="9" fill="#3D4460" font-style="italic">EK + FK langfristig</text>
  <line x1="322" y1="370" x2="510" y2="370" stroke="#3D4460" stroke-width="1"/>
  <text x="322" y="384" class="mono" font-size="9" fill="#3D4460" font-style="italic">Anlagevermögen</text>
  <text x="465" y="376" class="mono" font-size="13" fill="#3D4460">× 100</text>
  <line x1="322" y1="395" x2="539" y2="395" stroke="#E2E3E8" stroke-width="1"/>
  <text x="322" y="410" class="mono" font-size="8" fill="#7A8099" letter-spacing="1">BENCHMARK</text>
  <text x="322" y="426" class="mono" font-size="9" fill="#15192B" letter-spacing="0.5">&gt; 100 %  ·  90–100 %  ·  &lt; 90 %</text>
  <line x1="322" y1="437" x2="539" y2="437" stroke="#E2E3E8" stroke-width="1"/>
  <circle cx="337" cy="453" r="5" fill="#22c55e"/>
  <text x="347" y="457" class="mono" font-size="8" fill="#7A8099">gut</text>
  <circle cx="397" cy="453" r="5" fill="#f59e0b"/>
  <text x="407" y="457" class="mono" font-size="8" fill="#7A8099">beobachten</text>
  <circle cx="487" cy="453" r="5" fill="#ef4444"/>
  <text x="497" y="457" class="mono" font-size="8" fill="#7A8099">kritisch</text>

  <!-- ─── CARD 6: Liquidität II (bottom-right) ─── -->
  <rect x="574" y="295" width="247" height="225" fill="#FFFFFF" stroke="#E2E3E8" stroke-width="1"/>
  <rect x="574" y="295" width="247" height="4" fill="#D9C089"/>
  <text x="589" y="322" class="serif" font-size="16" fill="#1F2C56" font-weight="500">Liquidität II</text>
  <text x="589" y="338" class="mono" font-size="9" fill="#7A8099" letter-spacing="1">QUICK RATIO</text>
  <line x1="589" y1="348" x2="806" y2="348" stroke="#E2E3E8" stroke-width="1"/>
  <text x="589" y="364" class="mono" font-size="9" fill="#3D4460" font-style="italic">Forderungen + Kassenbestand</text>
  <line x1="589" y1="370" x2="806" y2="370" stroke="#3D4460" stroke-width="1"/>
  <text x="589" y="384" class="mono" font-size="9" fill="#3D4460" font-style="italic">kurzfristiges FK</text>
  <text x="720" y="376" class="mono" font-size="13" fill="#3D4460">× 100</text>
  <line x1="589" y1="395" x2="806" y2="395" stroke="#E2E3E8" stroke-width="1"/>
  <text x="589" y="410" class="mono" font-size="8" fill="#7A8099" letter-spacing="1">BENCHMARK</text>
  <text x="589" y="426" class="mono" font-size="9" fill="#15192B" letter-spacing="0.5">&gt; 100 %  ·  70–100 %  ·  &lt; 70 %</text>
  <line x1="589" y1="437" x2="806" y2="437" stroke="#E2E3E8" stroke-width="1"/>
  <circle cx="604" cy="453" r="5" fill="#22c55e"/>
  <text x="614" y="457" class="mono" font-size="8" fill="#7A8099">gut</text>
  <circle cx="664" cy="453" r="5" fill="#f59e0b"/>
  <text x="674" y="457" class="mono" font-size="8" fill="#7A8099">beobachten</text>
  <circle cx="754" cy="453" r="5" fill="#ef4444"/>
  <text x="764" y="457" class="mono" font-size="8" fill="#7A8099">kritisch</text>

  <!-- Source -->
  <text x="40" y="530" class="mono" font-size="9" fill="#B0B3C0" letter-spacing="0.5">Schierenbeck, Lister &amp; Kirmsse (2014) · KfW-Mittelstandspanel (2023) · Bankübliche Mindeststandards</text>
</svg>
