<svg xmlns="http://www.w3.org/2000/svg" viewBox="0 0 860 560" width="860" height="560">
  <defs>
    <style>
      @import url('https://fonts.googleapis.com/css2?family=Source+Serif+4:ital,opsz,wght@0,8..60,400;0,8..60,500;1,8..60,400&amp;family=JetBrains+Mono:wght@400;500&amp;display=swap');
      text { font-family: Georgia, serif; }
      .mono { font-family: 'JetBrains Mono', 'Courier New', monospace; }
      .serif { font-family: 'Source Serif 4', Georgia, serif; }
    </style>
  </defs>

  <rect width="860" height="560" fill="#F8F8FA"/>

  <text x="40" y="30" class="mono" font-size="10" fill="#7A8099" letter-spacing="2">WERTTREIBERBAUM · MODUL 03 · DER STRATEGISCHE FINANZDIALOG</text>
  <line x1="40" y1="40" x2="820" y2="40" stroke="#E2E3E8" stroke-width="1"/>

  <!-- connectors root -> mids -->
  <path d="M430,120 L430,150 L200,150 L200,190" fill="none" stroke="#C8CAD4" stroke-width="1"/>
  <path d="M430,150 L430,190" fill="none" stroke="#C8CAD4" stroke-width="1"/>
  <path d="M430,150 L660,150 L660,190" fill="none" stroke="#C8CAD4" stroke-width="1"/>
  <!-- connectors mids -> leaves -->
  <path d="M200,250 L200,290 L130,290 L130,320" fill="none" stroke="#C8CAD4" stroke-width="1"/>
  <path d="M200,290 L270,290 L270,320" fill="none" stroke="#C8CAD4" stroke-width="1"/>
  <path d="M430,250 L430,290 L360,290 L360,320" fill="none" stroke="#C8CAD4" stroke-width="1"/>
  <path d="M430,290 L500,290 L500,320" fill="none" stroke="#C8CAD4" stroke-width="1"/>
  <path d="M660,250 L660,290 L590,290 L590,320" fill="none" stroke="#C8CAD4" stroke-width="1"/>
  <path d="M660,290 L730,290 L730,320" fill="none" stroke="#C8CAD4" stroke-width="1"/>

  <!-- root -->
  <rect x="340" y="70" width="180" height="50" fill="#1F2C56"/>
  <text x="430" y="94" class="serif" font-size="15" fill="#F8F8FA" font-weight="500" text-anchor="middle">Unternehmenswert</text>
  <text x="430" y="110" class="mono" font-size="8" fill="#8898C4" text-anchor="middle">FREE CASHFLOW · ROCE</text>

  <!-- mid nodes -->
  <rect x="120" y="200" width="160" height="50" fill="#3D5494"/>
  <text x="200" y="231" class="serif" font-size="14" fill="#F8F8FA" font-weight="500" text-anchor="middle">Wachstum</text>
  <rect x="350" y="200" width="160" height="50" fill="#3D5494"/>
  <text x="430" y="231" class="serif" font-size="14" fill="#F8F8FA" font-weight="500" text-anchor="middle">Rentabilität</text>
  <rect x="580" y="200" width="160" height="50" fill="#3D5494"/>
  <text x="660" y="231" class="serif" font-size="14" fill="#F8F8FA" font-weight="500" text-anchor="middle">Kapitalstruktur</text>

  <!-- leaves -->
  <rect x="70" y="320" width="120" height="64" fill="#FFFFFF" stroke="#E2E3E8" stroke-width="1"/>
  <rect x="70" y="320" width="120" height="4" fill="#D9C089"/>
  <text x="130" y="350" class="serif" font-size="13" fill="#1F2C56" text-anchor="middle">Umsatz-</text>
  <text x="130" y="366" class="serif" font-size="13" fill="#1F2C56" text-anchor="middle">wachstum</text>

  <rect x="210" y="320" width="120" height="64" fill="#FFFFFF" stroke="#E2E3E8" stroke-width="1"/>
  <rect x="210" y="320" width="120" height="4" fill="#D9C089"/>
  <text x="270" y="350" class="serif" font-size="13" fill="#1F2C56" text-anchor="middle">Free</text>
  <text x="270" y="366" class="serif" font-size="13" fill="#1F2C56" text-anchor="middle">Cashflow</text>

  <rect x="300" y="320" width="120" height="64" fill="#FFFFFF" stroke="#E2E3E8" stroke-width="1"/>
  <rect x="300" y="320" width="120" height="4" fill="#D9C089"/>
  <text x="360" y="350" class="serif" font-size="13" fill="#1F2C56" text-anchor="middle">EBITDA-</text>
  <text x="360" y="366" class="serif" font-size="13" fill="#1F2C56" text-anchor="middle">Marge</text>

  <rect x="440" y="320" width="120" height="64" fill="#FFFFFF" stroke="#E2E3E8" stroke-width="1"/>
  <rect x="440" y="320" width="120" height="4" fill="#D9C089"/>
  <text x="500" y="354" class="serif" font-size="13" fill="#1F2C56" text-anchor="middle">ROCE</text>

  <rect x="530" y="320" width="120" height="64" fill="#FFFFFF" stroke="#E2E3E8" stroke-width="1"/>
  <rect x="530" y="320" width="120" height="4" fill="#D9C089"/>
  <text x="590" y="354" class="serif" font-size="13" fill="#1F2C56" text-anchor="middle">EK-Quote</text>

  <rect x="670" y="320" width="120" height="64" fill="#FFFFFF" stroke="#E2E3E8" stroke-width="1"/>
  <rect x="670" y="320" width="120" height="4" fill="#D9C089"/>
  <text x="730" y="354" class="serif" font-size="13" fill="#1F2C56" text-anchor="middle">Leverage</text>

  <!-- note -->
  <rect x="70" y="430" width="720" height="56" fill="#EDEDF3"/>
  <text x="94" y="454" class="mono" font-size="8" fill="#3D5494" letter-spacing="0.5">GESPRÄCHSHEBEL</text>
  <text x="94" y="474" class="serif" font-size="13" fill="#1F2C56">Jeder Werttreiber ist ein Anknüpfungspunkt für den strategischen Finanzdialog mit dem Unternehmer.</text>

  <text x="40" y="540" class="mono" font-size="9" fill="#B0B3C0" letter-spacing="0.5">Rappaport (1986) Creating Shareholder Value · Werttreiberbaum · finanzielle Werttreiber im Strategiedialog</text>
</svg>
