<svg xmlns="http://www.w3.org/2000/svg" viewBox="0 0 860 560" width="860" height="560">
  <defs>
    <style>
      @import url('https://fonts.googleapis.com/css2?family=Source+Serif+4:ital,opsz,wght@0,8..60,400;0,8..60,500;1,8..60,400&amp;family=JetBrains+Mono:wght@400;500&amp;display=swap');
      text { font-family: Georgia, serif; }
      .mono { font-family: 'JetBrains Mono', 'Courier New', monospace; }
      .serif { font-family: 'Source Serif 4', Georgia, serif; }
    </style>
  </defs>

  <rect width="860" height="560" fill="#F8F8FA"/>

  <text x="40" y="30" class="mono" font-size="10" fill="#7A8099" letter-spacing="2">PESTEL-ANALYSE · MODUL 09 · BRANCHENEXPERTE WERDEN</text>
  <line x1="40" y1="40" x2="820" y2="40" stroke="#E2E3E8" stroke-width="1"/>

  <text x="40" y="68" class="mono" font-size="9" fill="#7A8099" letter-spacing="1">SECHS MAKROUMFELD-DIMENSIONEN DER BRANCHENEINSCHÄTZUNG</text>

  <!-- Row 1 -->
  <!-- P Politisch -->
  <rect x="40" y="80" width="240" height="210" fill="#FFFFFF" stroke="#E2E3E8" stroke-width="1"/>
  <rect x="40" y="80" width="240" height="4" fill="#1F2C56"/>
  <text x="60" y="140" class="serif" font-size="40" fill="#D9C089" font-weight="500">P</text>
  <text x="112" y="124" class="serif" font-size="16" fill="#1F2C56" font-weight="500">Politisch</text>
  <text x="112" y="140" class="mono" font-size="8" fill="#7A8099">POLITICAL</text>
  <line x1="60" y1="162" x2="260" y2="162" stroke="#F1F1F4" stroke-width="1"/>
  <text x="60" y="190" class="serif" font-size="12" fill="#3D4460">· Förderkulisse (KfW, L-Bank)</text>
  <text x="60" y="214" class="serif" font-size="12" fill="#3D4460">· Branchenregulierung</text>
  <text x="60" y="238" class="serif" font-size="12" fill="#3D4460">· Handels- &amp; Subventionspolitik</text>

  <!-- E Ökonomisch -->
  <rect x="300" y="80" width="240" height="210" fill="#FFFFFF" stroke="#E2E3E8" stroke-width="1"/>
  <rect x="300" y="80" width="240" height="4" fill="#3D5494"/>
  <text x="320" y="140" class="serif" font-size="40" fill="#D9C089" font-weight="500">E</text>
  <text x="372" y="124" class="serif" font-size="16" fill="#1F2C56" font-weight="500">Ökonomisch</text>
  <text x="372" y="140" class="mono" font-size="8" fill="#7A8099">ECONOMIC</text>
  <line x1="320" y1="162" x2="520" y2="162" stroke="#F1F1F4" stroke-width="1"/>
  <text x="320" y="190" class="serif" font-size="12" fill="#3D4460">· Zinsniveau &amp; Konjunktur</text>
  <text x="320" y="214" class="serif" font-size="12" fill="#3D4460">· Energie- &amp; Rohstoffpreise</text>
  <text x="320" y="238" class="serif" font-size="12" fill="#3D4460">· Kaufkraft / Nachfrage</text>

  <!-- S Sozial -->
  <rect x="560" y="80" width="240" height="210" fill="#FFFFFF" stroke="#E2E3E8" stroke-width="1"/>
  <rect x="560" y="80" width="240" height="4" fill="#D9C089"/>
  <text x="580" y="140" class="serif" font-size="40" fill="#D9C089" font-weight="500">S</text>
  <text x="632" y="124" class="serif" font-size="16" fill="#1F2C56" font-weight="500">Sozial</text>
  <text x="632" y="140" class="mono" font-size="8" fill="#7A8099">SOCIAL</text>
  <line x1="580" y1="162" x2="780" y2="162" stroke="#F1F1F4" stroke-width="1"/>
  <text x="580" y="190" class="serif" font-size="12" fill="#3D4460">· Demografie &amp; Fachkräfte</text>
  <text x="580" y="214" class="serif" font-size="12" fill="#3D4460">· Werte- &amp; Konsumwandel</text>
  <text x="580" y="238" class="serif" font-size="12" fill="#3D4460">· Urbanisierung / Mobilität</text>

  <!-- Row 2 -->
  <!-- T Technologisch -->
  <rect x="40" y="310" width="240" height="210" fill="#FFFFFF" stroke="#E2E3E8" stroke-width="1"/>
  <rect x="40" y="310" width="240" height="4" fill="#1F2C56"/>
  <text x="60" y="370" class="serif" font-size="40" fill="#D9C089" font-weight="500">T</text>
  <text x="112" y="354" class="serif" font-size="16" fill="#1F2C56" font-weight="500">Technologisch</text>
  <text x="112" y="370" class="mono" font-size="8" fill="#7A8099">TECHNOLOGICAL</text>
  <line x1="60" y1="392" x2="260" y2="392" stroke="#F1F1F4" stroke-width="1"/>
  <text x="60" y="420" class="serif" font-size="12" fill="#3D4460">· Digitalisierung / Automation</text>
  <text x="60" y="444" class="serif" font-size="12" fill="#3D4460">· Disruptive Geschäftsmodelle</text>
  <text x="60" y="468" class="serif" font-size="12" fill="#3D4460">· Investitionszyklen</text>

  <!-- E Ökologisch -->
  <rect x="300" y="310" width="240" height="210" fill="#FFFFFF" stroke="#E2E3E8" stroke-width="1"/>
  <rect x="300" y="310" width="240" height="4" fill="#3D5494"/>
  <text x="320" y="370" class="serif" font-size="40" fill="#D9C089" font-weight="500">E</text>
  <text x="372" y="354" class="serif" font-size="16" fill="#1F2C56" font-weight="500">Ökologisch</text>
  <text x="372" y="370" class="mono" font-size="8" fill="#7A8099">ENVIRONMENTAL</text>
  <line x1="320" y1="392" x2="520" y2="392" stroke="#F1F1F4" stroke-width="1"/>
  <text x="320" y="420" class="serif" font-size="12" fill="#3D4460">· ESG- &amp; Klimaauflagen</text>
  <text x="320" y="444" class="serif" font-size="12" fill="#3D4460">· Energiewende</text>
  <text x="320" y="468" class="serif" font-size="12" fill="#3D4460">· Lieferketten-Resilienz</text>

  <!-- L Legal -->
  <rect x="560" y="310" width="240" height="210" fill="#FFFFFF" stroke="#E2E3E8" stroke-width="1"/>
  <rect x="560" y="310" width="240" height="4" fill="#D9C089"/>
  <text x="580" y="370" class="serif" font-size="40" fill="#D9C089" font-weight="500">L</text>
  <text x="632" y="354" class="serif" font-size="16" fill="#1F2C56" font-weight="500">Legal</text>
  <text x="632" y="370" class="mono" font-size="8" fill="#7A8099">LEGAL</text>
  <line x1="580" y1="392" x2="780" y2="392" stroke="#F1F1F4" stroke-width="1"/>
  <text x="580" y="420" class="serif" font-size="12" fill="#3D4460">· Gesetzesänderungen</text>
  <text x="580" y="444" class="serif" font-size="12" fill="#3D4460">· Compliance &amp; Haftung</text>
  <text x="580" y="468" class="serif" font-size="12" fill="#3D4460">· Steuer- &amp; Arbeitsrecht</text>

  <text x="40" y="548" class="mono" font-size="9" fill="#B0B3C0" letter-spacing="0.5">PESTEL-Framework (Aguilar 1967) · Fahey &amp; Narayanan (1986) · Makroumfeld als Branchen-Frühindikator</text>
</svg>
